<svg width="462" height="452" viewBox="0 0 462 452" fill="none" xmlns="http://www.w3.org/2000/svg">
<g clip-path="url(#clip0_313_104)">
<path d="M91.8859 347.367L7.35121 307.521C4.30934 306.083 1.94895 303.469 0.787926 300.252C-0.373097 297.035 -0.239946 293.477 1.15815 290.361L12.0487 266.154C13.4537 263.041 16.0079 260.625 19.1509 259.437C22.294 258.248 25.7692 258.384 28.8142 259.815L113.349 299.661C116.391 301.099 118.751 303.713 119.912 306.93C121.073 310.148 120.94 313.705 119.542 316.821L108.651 341.028C107.246 344.141 104.692 346.557 101.549 347.746C98.4061 348.934 94.9309 348.798 91.8859 347.367Z" fill="#F2F2F2"/>
<path d="M78.7236 331.977L27.3324 307.754C25.6019 306.936 24.2592 305.449 23.5987 303.618C22.9382 301.788 23.0139 299.765 23.8093 297.992L32.4388 278.811C33.2381 277.04 34.6911 275.665 36.4791 274.989C38.2672 274.313 40.2442 274.391 41.9764 275.205L93.3677 299.428C95.0981 300.246 96.4409 301.733 97.1013 303.563C97.7618 305.394 97.6861 307.417 96.8908 309.19L88.2612 328.371C87.462 330.142 86.009 331.517 84.2209 332.193C82.4329 332.869 80.4559 332.791 78.7236 331.977V331.977Z" fill="white"/>
<path d="M78.4283 332.634L27.0371 308.411C25.1366 307.512 23.6619 305.879 22.9366 303.869C22.2112 301.859 22.2944 299.637 23.1679 297.689L31.7973 278.509C32.675 276.564 34.2707 275.054 36.2344 274.312C38.1981 273.569 40.3694 273.654 42.2718 274.549L93.6631 298.772C95.5635 299.67 97.0382 301.304 97.7635 303.314C98.4888 305.323 98.4055 307.546 97.532 309.493L88.9026 328.673C88.0249 330.619 86.4292 332.128 84.4656 332.871C82.5019 333.613 80.3307 333.528 78.4283 332.634V332.634ZM41.6811 275.862C40.1189 275.127 38.3361 275.058 36.7236 275.667C35.1112 276.277 33.8008 277.516 33.0801 279.114L24.4507 298.294C23.7334 299.893 23.6652 301.718 24.2608 303.368C24.8564 305.019 26.0673 306.36 27.6278 307.098L79.0191 331.321C80.5812 332.055 82.364 332.125 83.9764 331.515C85.5888 330.905 86.8991 329.666 87.6198 328.069L96.2492 308.888C96.9664 307.289 97.0347 305.465 96.4391 303.814C95.8436 302.164 94.6328 300.823 93.0723 300.085L41.6811 275.862Z" fill="#3F3D56"/>
<path d="M63.8664 302.783L63.5825 302.649C63.433 302.579 63.2985 302.479 63.1866 302.356C63.0748 302.233 62.9878 302.088 62.9307 301.93C62.8735 301.772 62.8473 301.605 62.8536 301.436C62.8599 301.268 62.8986 301.103 62.9674 300.95C63.0361 300.797 63.1337 300.66 63.2544 300.546C63.3752 300.431 63.5168 300.343 63.6711 300.284C63.8254 300.226 63.9894 300.2 64.1536 300.207C64.3179 300.213 64.4793 300.253 64.6285 300.324L64.9124 300.458C65.2129 300.6 65.446 300.859 65.5604 301.177C65.6748 301.495 65.6612 301.847 65.5227 302.155C65.3842 302.462 65.132 302.701 64.8215 302.819C64.511 302.937 64.1675 302.924 63.8664 302.783V302.783Z" fill="#CCCCCC"/>
<path d="M76.0382 316.269L60.4221 308.909C60.2726 308.839 60.1381 308.739 60.0262 308.616C59.9144 308.492 59.8274 308.348 59.7703 308.19C59.7131 308.032 59.6869 307.864 59.6932 307.696C59.6995 307.528 59.7382 307.363 59.807 307.21C59.8757 307.057 59.9733 306.919 60.094 306.805C60.2148 306.691 60.3564 306.602 60.5107 306.544C60.665 306.486 60.829 306.46 60.9933 306.466C61.1576 306.473 61.3189 306.513 61.4681 306.584L77.0842 313.944C77.2337 314.015 77.3683 314.114 77.4801 314.237C77.592 314.361 77.679 314.506 77.7361 314.663C77.7932 314.821 77.8194 314.989 77.8131 315.157C77.8068 315.325 77.7682 315.491 77.6994 315.643C77.6306 315.796 77.533 315.934 77.4123 316.048C77.2915 316.162 77.15 316.251 76.9957 316.309C76.8414 316.367 76.6774 316.394 76.5131 316.387C76.3488 316.38 76.1874 316.34 76.0382 316.269V316.269Z" fill="#CCCCCC"/>
<path d="M49.1795 306.907C53.8095 306.907 57.5628 303.065 57.5628 298.326C57.5628 293.587 53.8095 289.745 49.1795 289.745C44.5496 289.745 40.7963 293.587 40.7963 298.326C40.7963 303.065 44.5496 306.907 49.1795 306.907Z" fill="#6C63FF"/>
<path d="M433.451 308.735H119.408C111.838 308.727 104.582 305.645 99.2296 300.167C93.8774 294.689 90.8668 287.261 90.8583 279.514V29.2219C90.8669 21.4745 93.8775 14.0469 99.2297 8.56862C104.582 3.09036 111.839 0.00880928 119.408 0H433.451C441.02 0.00880928 448.276 3.09037 453.629 8.56862C458.981 14.0469 461.991 21.4744 462 29.2219V279.514C461.991 287.261 458.981 294.689 453.629 300.167C448.276 305.645 441.02 308.727 433.451 308.735V308.735Z" fill="#F2F2F2"/>
<path d="M365.756 258.809H187.102C182.796 258.804 178.668 257.051 175.623 253.934C172.579 250.818 170.866 246.592 170.861 242.185V66.5506C170.866 62.1432 172.579 57.9178 175.623 54.8013C178.668 51.6848 182.796 49.9318 187.102 49.9268H365.756C370.062 49.9318 374.19 51.6848 377.235 54.8013C380.28 57.9178 381.992 62.1432 381.997 66.5506V242.185C381.992 246.592 380.28 250.818 377.235 253.934C374.19 257.051 370.062 258.804 365.756 258.809V258.809Z" fill="white"/>
<path d="M365.756 258.809H187.102C182.796 258.804 178.668 257.051 175.623 253.934C172.579 250.818 170.866 246.592 170.861 242.185V66.5506C170.866 62.1432 172.579 57.9178 175.623 54.8013C178.668 51.6848 182.796 49.9318 187.102 49.9268H365.756C370.062 49.9318 374.19 51.6848 377.235 54.8013C380.28 57.9178 381.992 62.1432 381.997 66.5506V242.185C381.992 246.592 380.28 250.818 377.235 253.934C374.19 257.051 370.062 258.804 365.756 258.809V258.809ZM187.102 51.3723C183.171 51.3768 179.402 52.9774 176.622 55.8229C173.842 58.6684 172.278 62.5264 172.273 66.5506V242.185C172.278 246.209 173.842 250.067 176.622 252.912C179.402 255.758 183.171 257.358 187.102 257.363H365.756C369.687 257.358 373.457 255.758 376.237 252.912C379.017 250.067 380.58 246.209 380.585 242.185V66.5506C380.58 62.5264 379.017 58.6684 376.237 55.8229C373.457 52.9774 369.687 51.3768 365.756 51.3723H187.102Z" fill="#3F3D56"/>
<path d="M274.107 113.919H244.099C243.722 113.92 243.349 113.844 243.001 113.697C242.653 113.55 242.336 113.334 242.07 113.061C241.803 112.789 241.592 112.465 241.447 112.109C241.303 111.753 241.229 111.371 241.229 110.986C241.229 110.6 241.303 110.218 241.447 109.862C241.592 109.506 241.803 109.182 242.07 108.91C242.336 108.638 242.653 108.422 243.001 108.274C243.349 108.127 243.722 108.052 244.099 108.052H274.107C274.867 108.054 275.594 108.363 276.131 108.913C276.667 109.463 276.969 110.209 276.969 110.986C276.969 111.763 276.667 112.508 276.131 113.058C275.594 113.608 274.867 113.918 274.107 113.919V113.919Z" fill="#6C63FF"/>
<path d="M341.191 230.286H311.182C310.806 230.286 310.432 230.211 310.084 230.064C309.736 229.917 309.42 229.701 309.153 229.428C308.886 229.156 308.675 228.832 308.531 228.476C308.386 228.12 308.312 227.738 308.312 227.352C308.312 226.967 308.386 226.585 308.531 226.229C308.675 225.873 308.886 225.549 309.153 225.277C309.42 225.004 309.736 224.788 310.084 224.641C310.432 224.494 310.806 224.419 311.182 224.419H341.191C341.95 224.42 342.678 224.73 343.214 225.28C343.751 225.83 344.052 226.575 344.052 227.352C344.052 228.13 343.751 228.875 343.214 229.425C342.678 229.975 341.95 230.284 341.191 230.286V230.286Z" fill="#6C63FF"/>
<path d="M341.377 125.916H244.099C243.339 125.916 242.61 125.607 242.072 125.057C241.535 124.507 241.233 123.76 241.233 122.983C241.233 122.205 241.535 121.459 242.072 120.908C242.61 120.358 243.339 120.049 244.099 120.049H341.377C342.137 120.049 342.866 120.358 343.403 120.908C343.941 121.459 344.243 122.205 344.243 122.983C344.243 123.76 343.941 124.507 343.403 125.057C342.866 125.607 342.137 125.916 341.377 125.916V125.916Z" fill="#E6E6E6"/>
<path d="M219.386 125.071C224.164 125.071 228.037 121.106 228.037 116.216C228.037 111.325 224.164 107.361 219.386 107.361C214.608 107.361 210.734 111.325 210.734 116.216C210.734 121.106 214.608 125.071 219.386 125.071Z" fill="#6C63FF"/>
<path d="M190.434 80.259C195.212 80.259 199.085 76.2945 199.085 71.4039C199.085 66.5134 195.212 62.5488 190.434 62.5488C185.656 62.5488 181.782 66.5134 181.782 71.4039C181.782 76.2945 185.656 80.259 190.434 80.259Z" fill="#F2F2F2"/>
<path d="M218.205 120.825C218.056 120.825 217.909 120.789 217.775 120.721C217.641 120.652 217.525 120.553 217.436 120.431L215.075 117.209C214.999 117.106 214.944 116.988 214.912 116.863C214.88 116.737 214.873 116.607 214.891 116.478C214.909 116.35 214.951 116.227 215.016 116.115C215.08 116.004 215.165 115.906 215.267 115.829C215.368 115.751 215.483 115.694 215.606 115.662C215.728 115.63 215.856 115.623 215.981 115.642C216.106 115.66 216.227 115.704 216.336 115.77C216.445 115.836 216.539 115.924 216.615 116.028L218.159 118.135L222.125 112.046C222.266 111.829 222.486 111.678 222.736 111.626C222.985 111.574 223.245 111.626 223.457 111.77C223.67 111.914 223.818 112.138 223.869 112.393C223.92 112.649 223.871 112.915 223.731 113.133L223.727 113.139L219.006 120.386C218.921 120.517 218.806 120.625 218.671 120.702C218.537 120.778 218.386 120.82 218.232 120.824L218.205 120.825Z" fill="white"/>
<path d="M341.377 157.718H244.099C243.339 157.718 242.61 157.409 242.072 156.859C241.535 156.309 241.233 155.562 241.233 154.785C241.233 154.007 241.535 153.261 242.072 152.71C242.61 152.16 243.339 151.851 244.099 151.851H341.377C342.137 151.851 342.866 152.16 343.403 152.71C343.941 153.261 344.243 154.007 344.243 154.785C344.243 155.562 343.941 156.309 343.403 156.859C342.866 157.409 342.137 157.718 341.377 157.718V157.718Z" fill="#E6E6E6"/>
<path d="M219.386 164.101C217.535 164.101 215.726 163.539 214.187 162.487C212.648 161.434 211.449 159.938 210.74 158.188C210.032 156.438 209.847 154.512 210.208 152.654C210.569 150.796 211.46 149.09 212.769 147.75C214.078 146.411 215.745 145.499 217.56 145.129C219.375 144.76 221.257 144.949 222.967 145.674C224.676 146.399 226.138 147.627 227.166 149.202C228.194 150.777 228.743 152.629 228.743 154.523C228.74 157.062 227.753 159.497 225.999 161.292C224.245 163.088 221.866 164.098 219.386 164.101V164.101ZM219.386 146.391C217.814 146.391 216.278 146.868 214.972 147.761C213.665 148.655 212.647 149.925 212.045 151.411C211.444 152.897 211.287 154.532 211.593 156.109C211.9 157.687 212.656 159.136 213.768 160.273C214.879 161.411 216.294 162.185 217.836 162.499C219.377 162.813 220.974 162.652 222.426 162.036C223.878 161.421 225.119 160.378 225.992 159.041C226.865 157.704 227.331 156.131 227.331 154.523C227.328 152.367 226.491 150.3 225.001 148.775C223.512 147.251 221.492 146.393 219.386 146.391V146.391Z" fill="#E6E6E6"/>
<path d="M274.107 190.533H244.099C243.722 190.534 243.349 190.458 243.001 190.311C242.653 190.164 242.336 189.948 242.07 189.675C241.803 189.403 241.592 189.079 241.447 188.723C241.303 188.367 241.229 187.985 241.229 187.6C241.229 187.214 241.303 186.832 241.447 186.476C241.592 186.12 241.803 185.796 242.07 185.524C242.336 185.252 242.653 185.036 243.001 184.888C243.349 184.741 243.722 184.666 244.099 184.667H274.107C274.867 184.668 275.594 184.977 276.131 185.527C276.667 186.077 276.969 186.823 276.969 187.6C276.969 188.377 276.667 189.122 276.131 189.672C275.594 190.222 274.867 190.532 274.107 190.533V190.533Z" fill="#E6E6E6"/>
<path d="M341.377 202.53H244.099C243.723 202.53 243.35 202.454 243.002 202.307C242.654 202.159 242.339 201.943 242.072 201.671C241.806 201.398 241.595 201.075 241.451 200.719C241.307 200.363 241.233 199.982 241.233 199.597C241.233 199.212 241.307 198.83 241.451 198.474C241.595 198.118 241.806 197.795 242.072 197.523C242.339 197.25 242.654 197.034 243.002 196.887C243.35 196.739 243.723 196.664 244.099 196.664H341.377C342.137 196.664 342.866 196.973 343.403 197.523C343.941 198.073 344.243 198.819 344.243 199.597C344.243 200.375 343.941 201.121 343.403 201.671C342.866 202.221 342.137 202.53 341.377 202.53V202.53Z" fill="#E6E6E6"/>
<path d="M219.386 202.408C217.535 202.408 215.726 201.847 214.187 200.794C212.648 199.742 211.448 198.246 210.74 196.496C210.032 194.745 209.846 192.82 210.207 190.962C210.568 189.104 211.459 187.397 212.768 186.057C214.077 184.718 215.744 183.805 217.56 183.436C219.375 183.066 221.256 183.256 222.966 183.981C224.676 184.706 226.138 185.933 227.166 187.509C228.194 189.084 228.743 190.936 228.743 192.83C228.74 195.369 227.754 197.804 225.999 199.6C224.245 201.395 221.867 202.405 219.386 202.408ZM219.386 184.697C217.814 184.697 216.278 185.174 214.971 186.068C213.665 186.961 212.646 188.231 212.045 189.717C211.443 191.204 211.286 192.839 211.592 194.416C211.899 195.994 212.656 197.443 213.767 198.581C214.878 199.718 216.294 200.493 217.835 200.806C219.376 201.12 220.974 200.959 222.426 200.344C223.878 199.728 225.119 198.686 225.992 197.348C226.865 196.011 227.331 194.439 227.331 192.83C227.328 190.674 226.491 188.607 225.001 187.082C223.512 185.557 221.492 184.7 219.386 184.697Z" fill="#E6E6E6"/>
<path d="M194.366 70.6901H188.004L190.417 68.1647C190.528 68.0489 190.589 67.8928 190.588 67.7308C190.586 67.5688 190.521 67.4141 190.408 67.3009C190.352 67.2448 190.286 67.2005 190.213 67.1707C190.14 67.1408 190.063 67.1259 189.984 67.1267C189.826 67.1285 189.675 67.1946 189.564 67.3104L186.159 70.8733C186.05 70.9874 185.989 71.1408 185.989 71.3005C185.989 71.4601 186.05 71.6135 186.159 71.7276L189.564 75.2908C189.675 75.4066 189.826 75.4727 189.984 75.4745C190.143 75.4763 190.295 75.4136 190.408 75.3003C190.521 75.187 190.586 75.0324 190.588 74.8704C190.589 74.7084 190.528 74.5523 190.417 74.4365L188.005 71.9118H194.366C194.524 71.9112 194.675 71.8466 194.787 71.7321C194.898 71.6176 194.961 71.4625 194.961 71.3009C194.961 71.1392 194.898 70.9842 194.787 70.8697C194.675 70.7552 194.524 70.6906 194.366 70.69V70.6901Z" fill="#3F3D56"/>
<path d="M129.501 443.009L136.493 443.008L139.819 415.405L129.5 415.406L129.501 443.009Z" fill="#A0616A"/>
<path d="M129.255 450.474L150.755 450.473V450.195C150.755 447.923 149.873 445.745 148.304 444.138C146.734 442.532 144.606 441.63 142.386 441.629H142.386L138.459 438.58L131.131 441.63L129.255 441.63L129.255 450.474Z" fill="#2F2E41"/>
<path d="M97.7249 443.009L104.716 443.008L108.042 415.405L97.7235 415.406L97.7249 443.009Z" fill="#A0616A"/>
<path d="M97.4785 450.474L118.978 450.473V450.195C118.978 447.923 118.097 445.745 116.527 444.138C114.958 442.532 112.829 441.63 110.61 441.629H110.609L106.682 438.58L99.3549 441.63L97.4781 441.63L97.4785 450.474Z" fill="#2F2E41"/>
<path d="M146.499 265.791C146.499 265.791 157.798 280.135 155.607 283.854C153.416 287.573 149.886 286.285 153.416 290.182C156.947 294.078 158.362 294.124 155.889 296.992C153.416 299.861 151.269 362.554 151.269 362.554L140 427.792L127.598 428.935C127.598 428.935 125.284 420.962 125.227 417.872C125.171 414.782 125.171 417.474 125.171 411.068C125.171 404.663 127.402 409.625 125.227 403.53C123.052 397.435 120.341 379.48 125.227 370.749C130.114 362.019 126.273 369.679 126.273 369.679L122.488 310.514L115.285 371.415C115.285 371.415 115.285 392.376 111.754 407.554L111.17 428.935L95.9526 428.34C95.9526 428.34 91.9822 422.009 93.3944 414.782C94.8067 407.554 89.1576 403.94 89.1576 400.326C89.1576 396.712 89.4551 362.144 89.4551 362.144L92.755 290.182C92.755 290.182 89.8637 273.841 96.219 267.336C102.574 260.831 146.499 265.791 146.499 265.791Z" fill="#2F2E41"/>
<path d="M112.827 137.864L127.656 138.587C127.542 143.017 129.906 147.197 134.747 151.126L142.824 159.642L144.943 178.434L142.824 249.266L154.829 278.177C138.697 284.63 119.842 287.492 93.3944 280.346C90.4116 277.09 94.2228 258.112 95.9565 243.942C95.9565 243.942 99.709 238.038 96.3214 233.771C92.9338 229.504 97.6312 203.009 97.6312 203.009L99.0435 173.375C98.2404 163.784 91.5899 156.564 98.9791 150.61C104.45 147.448 109.177 143.097 112.827 137.864V137.864Z" fill="#6C63FF"/>
<path d="M134.747 151.126L144.823 154.219L153.387 175.876L148.134 243.389C148.134 243.389 147.081 247.472 149.02 246.876C150.959 246.28 150.169 251.397 150.169 251.397L157.314 279.528L89.1576 273.841L95.9565 243.942C95.9565 243.942 90.9412 244.107 94.4677 240.498C97.9941 236.888 96.7821 239.078 93.3945 234.811C92.4245 233.674 91.8132 232.263 91.6411 230.763C91.469 229.264 91.744 227.746 92.4301 226.41L90.9188 205.268L88.4272 175.515C88.0318 170.794 88.7891 166.046 90.6311 161.699C92.473 157.351 95.3417 153.541 98.9792 150.61C109.501 144.212 121.695 145.657 134.747 151.126Z" fill="#3F3D56"/>
<path d="M76.7555 286.685C75.9591 285.476 75.655 283.997 75.908 282.562C76.1609 281.127 76.9509 279.85 78.1098 279.002C78.348 278.833 78.5995 278.685 78.8616 278.559L77.0253 259.122L86.3331 254.698L86.0361 281.603C86.4627 282.756 86.5045 284.021 86.1549 285.2C85.8052 286.38 85.0839 287.408 84.1034 288.124C83.5417 288.526 82.9082 288.811 82.2389 288.962C81.5697 289.113 80.8779 289.128 80.2031 289.006C79.5282 288.883 78.8835 288.626 78.3058 288.249C77.7281 287.871 77.2286 287.381 76.836 286.806C76.8086 286.766 76.7817 286.726 76.7555 286.685Z" fill="#A0616A"/>
<path d="M70.0918 232.548L77.1532 269.41L77.9935 269.352L86.1777 268.752L87.0392 268.687L86.3331 235.44C84.4547 233.481 87.6394 226.773 91.8198 218.678C93.3662 215.693 95.0468 212.513 96.6639 209.318C96.9534 208.747 97.2359 208.176 97.5183 207.605C99.5494 203.645 101.314 199.547 102.8 195.34L91.0995 161.355L90.8029 160.488C90.8029 160.488 88.3103 166.574 85.0479 175.384C84.8007 176.042 84.5536 176.714 84.3064 177.401C78.0783 194.415 69.6823 219.9 70.0918 232.548Z" fill="#3F3D56"/>
<path d="M218.409 124.085C217.937 125.46 216.959 126.594 215.684 127.243C214.408 127.892 212.936 128.006 211.579 127.561C211.305 127.466 211.039 127.348 210.783 127.208L196.648 140.323L187.623 135.323L208.884 119.5C209.533 118.461 210.499 117.672 211.632 117.254C212.765 116.837 214.002 116.815 215.148 117.193C215.799 117.414 216.4 117.764 216.918 118.223C217.437 118.682 217.861 119.241 218.169 119.868C218.476 120.495 218.659 121.178 218.708 121.878C218.758 122.578 218.672 123.28 218.456 123.946C218.441 123.993 218.425 124.039 218.409 124.085Z" fill="#A0616A"/>
<path d="M111.126 187.917C111.126 187.917 132.107 182.605 151.551 175.571C152.064 175.388 152.569 175.2 153.073 175.012C164.134 170.942 174.492 166.343 179.961 161.883L204.635 134.072L204.087 133.421L198.723 127.063L198.162 126.393L172.533 146.827C172.123 149.474 165.282 150.867 156.713 152.234C156.233 152.314 155.726 152.614 155.246 152.461C147.181 149.898 138.073 154.133 131.274 157.256L111.126 187.917Z" fill="#3F3D56"/>
<path d="M120.911 135.553C130.706 135.553 138.646 127.426 138.646 117.401C138.646 107.375 130.706 99.248 120.911 99.248C111.117 99.248 103.177 107.375 103.177 117.401C103.177 127.426 111.117 135.553 120.911 135.553Z" fill="#A0616A"/>
<path d="M109.24 136.385C112.207 134.959 115.671 135.825 118.946 135.957C122.221 136.089 126.189 134.826 126.884 131.547C127.397 129.123 125.853 126.467 126.826 124.195C127.887 121.718 131.072 121.365 133.627 120.672C136.828 119.725 139.652 117.758 141.688 115.057C143.723 112.356 144.865 109.061 144.947 105.651C145.124 107.005 142.862 107.449 142.118 106.315C141.375 105.181 141.887 103.611 142.707 102.534C143.526 101.456 144.632 100.595 145.25 99.385C145.868 98.1747 145.748 96.3773 144.541 95.7948C143.923 97.0726 143.047 98.2017 141.971 99.1076C140.895 100.013 139.644 100.676 138.299 101.05C138.848 99.3434 138.072 97.4247 136.823 96.1624C135.496 94.9797 133.967 94.058 132.313 93.4437C128.225 91.6299 123.451 89.8248 119.492 91.9176C118.47 92.4682 117.583 93.248 116.897 94.1988C116.211 95.1496 115.743 96.2468 115.529 97.4085C108.206 98.0423 100.687 106.162 101.103 113.672C101.552 121.757 101.88 122.411 108.455 136.017" fill="#2F2E41"/>
<path d="M31.592 452L31.5965 451.786C31.6912 448.2 32.5476 444.678 34.1065 441.464C35.6653 438.251 37.889 435.424 40.6232 433.179C42.1666 431.932 43.8572 430.89 45.6551 430.075L45.8266 429.997L45.8559 430.187C46.204 432.451 46.7554 434.763 47.0123 435.788L48.7342 428.911L48.9256 428.855C49.8029 428.591 50.7374 428.602 51.6084 428.887C52.4794 429.172 53.2471 429.717 53.8127 430.453C54.4028 431.188 54.7642 432.088 54.8503 433.036C54.9364 433.984 54.7433 434.936 54.2958 435.771C53.8944 436.536 53.4999 437.335 53.1183 438.107C51.8071 440.761 50.4514 443.505 48.4757 445.637C46.9648 447.236 45.1241 448.469 43.088 449.246C41.0519 450.024 38.8719 450.326 36.7071 450.131L31.592 452Z" fill="#F2F2F2"/>
<path d="M200.653 451.76L31.3557 451.982C31.1331 451.981 30.9199 451.89 30.7627 451.729C30.6056 451.568 30.5173 451.349 30.5173 451.121C30.5173 450.894 30.6056 450.675 30.7627 450.514C30.9199 450.352 31.1331 450.261 31.3557 450.261L200.653 450.039C200.876 450.039 201.09 450.129 201.247 450.291C201.405 450.452 201.494 450.671 201.494 450.899C201.494 451.127 201.405 451.346 201.247 451.508C201.09 451.669 200.876 451.76 200.653 451.76Z" fill="#CACACA"/>
</g>
<defs>
<clipPath id="clip0_313_104">
<rect width="462" height="452" fill="white"/>
</clipPath>
</defs>
</svg>
